<?xml version="1.0" standalone="no"?>
<!DOCTYPE svg PUBLIC "-//W3C//DTD SVG 20010904//EN"
 "http://www.w3.org/TR/2001/REC-SVG-20010904/DTD/svg10.dtd">
<svg version="1.0" xmlns="http://www.w3.org/2000/svg"
 width="700.000000pt" height="700.000000pt" viewBox="0 0 700.000000 700.000000"
 preserveAspectRatio="xMidYMid meet">
<metadata>
Created by potrace 1.11, written by Peter Selinger 2001-2013
</metadata>
<g transform="translate(0.000000,700.000000) scale(0.100000,-0.100000)"
fill="#000000" stroke="none">
<path d="M3065 6532 c-297 -49 -578 -222 -765 -471 -104 -137 -195 -358 -221
-536 -11 -74 -14 -277 -5 -323 3 -15 8 -43 11 -62 16 -97 41 -173 98 -301 155
-345 525 -619 907 -674 114 -17 302 -12 405 10 168 36 325 103 460 198 86 61
226 200 287 287 103 147 184 344 204 495 3 28 8 59 10 70 13 63 3 256 -17 362
-6 29 -10 55 -10 58 1 13 -65 186 -89 236 -84 166 -241 349 -387 450 -126 87
-322 173 -443 194 -151 27 -313 29 -445 7z"/>
<path d="M1157 4484 c-1 -2 -37 -6 -79 -9 -125 -9 -294 -58 -421 -121 -314
-158 -580 -508 -633 -834 -3 -19 -10 -55 -14 -80 -8 -42 -6 -308 3 -340 2 -8
7 -33 11 -55 25 -135 93 -293 181 -425 286 -426 799 -622 1293 -494 94 25 112
31 222 82 149 68 345 232 448 373 262 361 299 848 95 1254 -178 352 -559 609
-948 640 -128 10 -155 12 -158 9z"/>
<path d="M5298 4485 c-2 -2 -34 -6 -73 -9 -74 -5 -197 -29 -255 -48 -19 -7
-37 -13 -40 -13 -45 -12 -179 -80 -255 -129 -334 -219 -536 -587 -539 -981 -1
-156 7 -219 45 -352 23 -85 72 -202 101 -245 10 -14 18 -28 18 -31 0 -3 24
-41 54 -84 94 -136 248 -274 398 -356 548 -301 1222 -136 1577 386 131 193
203 443 196 687 -2 69 -6 139 -9 155 -3 17 -9 46 -12 65 -10 58 -53 186 -89
263 -179 382 -565 653 -972 683 -48 3 -100 7 -115 9 -15 1 -29 1 -30 0z"/>
<path d="M3166 2418 c-138 -14 -213 -30 -331 -75 -98 -37 -171 -78 -305 -170
-50 -34 -206 -200 -252 -268 -62 -92 -121 -211 -153 -309 -25 -78 -28 -92 -40
-170 -4 -21 -9 -48 -11 -60 -6 -29 -6 -254 1 -291 3 -16 8 -41 10 -55 3 -14 8
-38 11 -55 7 -38 35 -137 42 -150 4 -5 7 -15 8 -21 4 -23 88 -182 132 -248 60
-91 206 -237 302 -302 80 -55 229 -134 252 -134 8 0 18 -4 23 -9 12 -10 154
-48 210 -56 22 -3 51 -8 64 -11 30 -6 223 -6 281 1 328 41 620 215 833 499 53
70 143 257 171 358 42 145 58 336 41 478 -24 200 -120 429 -249 593 -181 233
-419 376 -730 442 -74 16 -221 22 -310 13z"/>
</g>
</svg>
