<svg xmlns="http://www.w3.org/2000/svg"><symbol id="icon_cart" viewBox="0 0 16.61 16.61"><path d="M.6,1.42A7.93,7.93,0,0,0,2.3,3.06a3.27,3.27,0,0,1,.57.77l1.6,3.09a2,2,0,0,1,.22.92v.67a1.91,1.91,0,0,1-.6,1.4h0a1.38,1.38,0,0,0-.42,1s-.16.82-.17,1.1a1.6,1.6,0,0,0,.17.79c.33.21,10.22,0,10.22,0a1,1,0,0,0,1-1h0a1,1,0,0,0-1-1H6.23a.51.51,0,0,1-.52-.5h0a1,1,0,0,1,1-1h4.95a2,2,0,0,0,1.75-1l2.19-3.52c.19-.3.31-.46.31-.46l.51-1s.16-.84,0-1C16,2,4.93,2.41,4.93,2.41A2,2,0,0,1,3.11,1.32L2.93,1A1,1,0,0,0,2,.5S.87.41.6.63.51,1.2.6,1.42Z" transform="translate(-.21 -.19)"/><ellipse cx="4.49" cy="15.08" rx="1.28" ry="1.24"/><ellipse cx="12.66" cy="15.08" rx="1.28" ry="1.24"/></symbol><symbol id="icon_logo" viewBox="0 0 508 104"><path d="M207.2,25.9c3,1.1,5.7,2.7,7.8,4.8c2.2,2.1,3.9,4.6,5.1,7.6c1.2,3,1.8,6.3,1.8,10v33.9h-15V51.1 c0-4.2-1-7.4-3-9.7c-2-2.3-5.1-3.4-9.3-3.4c-3.8,0-7,1.4-9.5,4.3c-2.5,2.9-3.8,6.7-3.8,11.4v28.5h-15V51.1c0-4.2-1-7.4-3-9.7 c-2-2.3-5.1-3.4-9.3-3.4c-3.8,0-7,1.4-9.5,4.3c-2.5,2.9-3.8,6.7-3.8,11.4v28.5h-15V25.8h15v4.3c1.6-1.6,3.8-2.9,6.7-4.1 c2.9-1.1,6-1.7,9.5-1.7c4.5,0,8.5,0.7,11.9,2c3.4,1.3,6.2,3.5,8.3,6.5c1.9-2.4,4.6-4.4,8-6.1c3.4-1.7,7.5-2.5,12.2-2.5 C200.8,24.3,204.2,24.8,207.2,25.9z"/><path d="M271.9,26.5c3.8,1.5,7,3.6,9.7,6.2c2.7,2.7,4.9,5.8,6.4,9.4c1.5,3.6,2.3,7.6,2.3,11.9c0,4.3-0.8,8.2-2.3,11.8 c-1.5,3.6-3.7,6.7-6.4,9.4c-2.7,2.7-6,4.7-9.7,6.2c-3.8,1.5-7.8,2.3-12.2,2.3c-4.4,0-8.4-0.8-12.2-2.3c-3.8-1.5-7-3.6-9.7-6.2 c-2.7-2.7-4.9-5.8-6.4-9.4c-1.5-3.6-2.3-7.5-2.3-11.8c0-4.3,0.8-8.2,2.3-11.9c1.5-3.6,3.7-6.8,6.4-9.4c2.7-2.7,6-4.7,9.7-6.2 c3.8-1.5,7.8-2.3,12.2-2.3C264.1,24.3,268.2,25,271.9,26.5z M253.6,39.2c-1.9,0.8-3.6,1.9-5,3.3c-1.4,1.4-2.5,3.1-3.3,5 c-0.8,2-1.2,4.2-1.2,6.5c0,2.4,0.4,4.5,1.2,6.5c0.8,1.9,1.9,3.6,3.3,5c1.4,1.4,3.1,2.5,5,3.3c1.9,0.8,4,1.2,6.2,1.2 c2.2,0,4.3-0.4,6.2-1.2c1.9-0.8,3.6-1.9,5-3.3c1.4-1.4,2.5-3,3.3-5c0.8-1.9,1.2-4.1,1.2-6.5c0-2.4-0.4-4.6-1.2-6.5 c-0.8-2-1.9-3.7-3.3-5c-1.4-1.4-3.1-2.5-5-3.3c-1.9-0.8-4-1.2-6.2-1.2C257.5,38,255.5,38.4,253.6,39.2z"/><path d="M315.1,82.2l-26-56.4h16.5l16.9,36.3l16.9-36.3h15.9l-26,56.4H315.1z"/><path d="M356.5,42.9c1.3-3.6,3.2-6.7,5.6-9.5c2.5-2.8,5.5-5,9.1-6.7c3.6-1.7,7.7-2.5,12.2-2.5c3.2,0,6.2,0.5,9.2,1.5 c3,1,5.4,2.5,7.3,4.4v-4.4h15v56.4h-15v-4.3c-1.9,1.9-4.3,3.3-7.3,4.3c-3,1-6,1.5-9.2,1.5c-4.5,0-8.6-0.8-12.2-2.5 c-3.6-1.7-6.6-3.9-9.1-6.6c-2.5-2.7-4.3-5.9-5.6-9.4c-1.3-3.6-2-7.3-2-11.2C354.6,50.2,355.2,46.5,356.5,42.9z M370.6,60.2 c0.8,1.9,1.8,3.6,3.1,5.1c1.3,1.5,2.9,2.6,4.8,3.4c1.9,0.8,3.9,1.2,6.1,1.2c2,0,3.9-0.3,5.8-1c1.9-0.7,3.6-1.7,5.1-3 c1.5-1.3,2.7-2.9,3.6-4.9c0.9-2,1.4-4.3,1.4-7c0-2.7-0.5-5-1.4-7c-0.9-2-2.1-3.6-3.6-5c-1.5-1.3-3.2-2.4-5.1-3c-1.9-0.7-3.8-1-5.8-1 c-2.2,0-4.3,0.4-6.1,1.3c-1.9,0.9-3.4,2-4.8,3.5c-1.3,1.5-2.3,3.2-3.1,5.1c-0.8,1.9-1.1,4-1.1,6.1C369.5,56.2,369.9,58.2,370.6,60.2 z"/><path d="M446.3,82.2l-26-56.4h16.5l16.9,36.3l16.9-36.3h15.9l-26,56.4H446.3z"/><path d="M508,0.4v16.3h-16.4V0.4H508z M507.3,82.2h-15V25.8h15V82.2z"/><circle cx="48.5" cy="24.5" r="17.8"/><circle cx="48.5" cy="85.8" r="17.8"/><circle cx="79.2" cy="55.2" r="17.8"/><circle cx="17.8" cy="55.2" r="17.8"/></symbol></svg>